<svg xmlns="http://www.w3.org/2000/svg" width="2880" height="1280">
  <g id="Wink" fill="#22b9ec">
    <path id="W" d="M196.5 440h189l101 251.5c11.7-43.66 89.17-177 133.75-265.5h13.5c46.58 87.5 130.28 227.14 139.75 262.5L877 440h171.5L796 995h-15.75C728 895.33 635.56 741 623.5 696 610.92 742.96 515 895.33 460.75 995H446z"/>
    <path id="i" d="M1102 215l103-64 103 64v133h-206zm17.5 225H1291v541h-171.5z"/>
    <path id="n" d="M1428 440h171.5l-3 87.5c66.46-146.82 368.48-152.83 374.5 132.5v321h-171.5l-.5-304c3.21-136.45-209.15-113.41-199 14l-.5 290H1428z"/>
    <path id="k" d="M2077 440.5h171.5l-.5 197L2417 440h190.5l-191 221 211.75 320H2428.5L2294 777l-45.5 48v156H2077z"/>
  </g>
</svg>
